<svg width="16" height="24" viewBox="0 0 16 24" fill="none" xmlns="http://www.w3.org/2000/svg">
<path d="M13.0492 20.28C12.0692 21.23 10.9992 21.08 9.96919 20.63C8.87919 20.17 7.87919 20.15 6.72919 20.63C5.28919 21.25 4.52919 21.07 3.66919 20.28C-1.21081 15.25 -0.490812 7.59 5.04919 7.31C6.39919 7.38 7.33919 8.05 8.12919 8.11C9.30919 7.87 10.4392 7.18 11.6992 7.27C13.2092 7.39 14.3492 7.99 15.0992 9.07C11.9792 10.94 12.7192 15.05 15.5792 16.2C15.0092 17.7 14.2692 19.19 13.0392 20.29L13.0492 20.28ZM8.02919 7.25C7.87919 5.02 9.68919 3.18 11.7692 3C12.0592 5.58 9.42919 7.5 8.02919 7.25Z" fill="black"/>
</svg>
