<svg width="135" height="80" viewBox="0 0 135 80" fill="none" xmlns="http://www.w3.org/2000/svg">
<g filter="url(#filter0_d_182_1498)">
<line x1="4.5752" y1="5.58057" x2="61.7784" y2="5.58057" stroke="#40B59F" stroke-width="6"/>
</g>
<g filter="url(#filter1_d_182_1498)">
<path d="M37.467 20.0211L61.0633 20.0211" stroke="#40B59F" stroke-width="6"/>
</g>
<path d="M29 59V71.1557" stroke="#40B59F" stroke-width="6"/>
<g filter="url(#filter2_d_182_1498)">
<path d="M26 69L42.4459 69" stroke="#40B59F" stroke-width="6"/>
</g>
<path d="M40 17L39.6122 71.5039" stroke="#40B59F" stroke-width="6"/>
<circle cx="7.07784" cy="6.07784" r="6.07784" fill="#AFE0D7"/>
<circle cx="7.07803" cy="6.07779" r="3.21768" fill="#349A86"/>
<circle cx="61.0633" cy="6.79292" r="6.07784" fill="#AFE0D7"/>
<path d="M61.0633 22.1663L55.3429 8.93803L66.7836 8.93803L61.0633 22.1663Z" fill="#AFE0D7"/>
<circle cx="61.0633" cy="6.79293" r="3.21768" fill="white"/>
<line x1="45" y1="69" x2="131" y2="69" stroke="#AFE0D7" stroke-width="6" stroke-dasharray="30 5"/>
<path d="M51.0663 47.7308H124.625V59.1208H51.0663V47.7308Z" fill="#40B59F"/>
<g filter="url(#filter3_d_182_1498)">
<path d="M115.464 66.0674C111.556 65.7898 108.601 62.2212 108.864 58.0966C109.127 53.9721 112.508 50.8535 116.417 51.131C120.326 51.4086 123.281 54.9772 123.018 59.1018C122.755 63.2264 119.373 66.345 115.464 66.0674Z" fill="#263238"/>
<path d="M123.033 58.4725C123.033 58.4795 123.033 58.4865 123.033 58.4921C123.046 59.475 122.876 60.4511 122.532 61.3647C122.188 62.2783 121.677 63.1114 121.028 63.8166C120.379 64.5217 119.604 65.085 118.749 65.4743C117.893 65.8636 116.974 66.0713 116.042 66.0856C115.111 66.0998 114.186 65.9203 113.32 65.5573C112.454 65.1943 111.665 64.6549 110.997 63.9699C110.328 63.2849 109.795 62.4678 109.426 61.5651C109.057 60.6624 108.86 59.6919 108.846 58.7089C108.846 58.7019 108.846 58.6949 108.846 58.6893L123.033 58.4725Z" fill="#263238"/>
<path d="M120.921 58.5242C120.935 59.5636 120.657 60.5841 120.122 61.4568C119.587 62.3295 118.819 63.0152 117.914 63.427C117.01 63.8388 116.01 63.9583 115.041 63.7704C114.072 63.5825 113.178 63.0957 112.472 62.3714C111.765 61.6471 111.278 60.718 111.072 59.7016C110.866 58.6851 110.95 57.627 111.314 56.661C111.678 55.6951 112.305 54.8647 113.116 54.2749C113.927 53.6851 114.886 53.3624 115.871 53.3476C117.191 53.3278 118.464 53.862 119.411 54.8327C120.358 55.8034 120.901 57.1312 120.921 58.5242Z" fill="#FAFAFA"/>
<path d="M115.871 53.3463C117.191 53.3261 118.465 53.8601 119.412 54.8309C120.359 55.8017 120.901 57.1297 120.921 58.5229L110.962 58.6754C110.944 57.2819 111.45 55.9376 112.371 54.9382C113.291 53.9388 114.55 53.3662 115.871 53.3463Z" fill="#E0E0E0"/>
<path d="M118.974 58.5536C118.983 59.1868 118.814 59.8085 118.488 60.3401C118.162 60.8717 117.694 61.2893 117.143 61.5401C116.592 61.791 115.983 61.8637 115.393 61.7492C114.803 61.6347 114.258 61.3381 113.827 60.8968C113.397 60.4556 113.1 59.8896 112.975 59.2704C112.849 58.6512 112.901 58.0066 113.122 57.4182C113.344 56.8298 113.726 56.324 114.22 55.9648C114.715 55.6055 115.299 55.409 115.899 55.4001C116.297 55.394 116.692 55.4707 117.062 55.6259C117.432 55.7811 117.77 56.0117 118.055 56.3045C118.341 56.5974 118.569 56.9467 118.727 57.3326C118.885 57.7185 118.969 58.1334 118.974 58.5536Z" fill="#263238"/>
<path d="M61.2886 66.0648C57.3778 65.8254 54.3913 62.2858 54.6182 58.1588C54.8451 54.0319 58.1993 50.8804 62.1102 51.1198C66.021 51.3592 69.0075 54.8988 68.7806 59.0258C68.5538 63.1528 65.1995 66.3042 61.2886 66.0648Z" fill="#263238"/>
<path d="M68.7934 58.4725C68.7934 58.4795 68.7934 58.4865 68.7934 58.4921C68.8069 59.475 68.6368 60.4511 68.2928 61.3647C67.9488 62.2783 67.4377 63.1114 66.7886 63.8166C66.1395 64.5217 65.3651 65.085 64.5097 65.4743C63.6543 65.8636 62.7346 66.0713 61.8031 66.0856C60.8716 66.0998 59.9466 65.9203 59.0808 65.5573C58.2151 65.1943 57.4256 64.6549 56.7574 63.9699C56.0892 63.2849 55.5554 62.4678 55.1865 61.5651C54.8175 60.6624 54.6207 59.6919 54.6072 58.7089C54.6072 58.7019 54.6072 58.6949 54.6072 58.6893L68.7934 58.4725Z" fill="#263238"/>
<path d="M66.6815 58.5242C66.696 59.5636 66.4182 60.5841 65.8831 61.4568C65.3479 62.3295 64.5796 63.0152 63.6752 63.427C62.7707 63.8388 61.7709 63.9583 60.8021 63.7704C59.8333 63.5825 58.939 63.0957 58.2325 62.3714C57.5259 61.6471 57.0388 60.718 56.8327 59.7016C56.6266 58.6851 56.7108 57.627 57.0746 56.661C57.4385 55.6951 58.0656 54.8647 58.8767 54.2749C59.6878 53.6851 60.6465 53.3624 61.6314 53.3476C62.9515 53.3278 64.225 53.862 65.172 54.8327C66.119 55.8034 66.6619 57.1312 66.6815 58.5242Z" fill="#FAFAFA"/>
<path d="M61.6314 53.3463C62.9515 53.3261 64.2252 53.8601 65.1723 54.8309C66.1194 55.8017 66.6622 57.1297 66.6814 58.5229L56.7232 58.6754C56.7044 57.2819 57.211 55.9376 58.1314 54.9382C59.0519 53.9388 60.3108 53.3662 61.6314 53.3463Z" fill="#E0E0E0"/>
<path d="M64.7392 58.5536C64.748 59.1868 64.5787 59.8085 64.2527 60.3401C63.9267 60.8717 63.4586 61.2893 62.9077 61.5401C62.3567 61.791 61.7476 61.8637 61.1575 61.7492C60.5673 61.6347 60.0226 61.3381 59.5922 60.8968C59.1618 60.4556 58.8651 59.8896 58.7396 59.2704C58.6142 58.6512 58.6655 58.0066 58.8872 57.4182C59.1089 56.8298 59.491 56.324 59.9851 55.9648C60.4793 55.6055 61.0633 55.409 61.6633 55.4001C62.0615 55.394 62.4569 55.4707 62.827 55.6259C63.1971 55.7811 63.5346 56.0117 63.8202 56.3045C64.1059 56.5974 64.334 56.9467 64.4917 57.3326C64.6494 57.7185 64.7335 58.1334 64.7392 58.5536Z" fill="#263238"/>
<path d="M106.644 40.879C106.644 40.879 117.089 41.6919 120.963 42.6083C123.692 43.2533 128.952 44.3683 128.889 47.8604L128.471 50.3648C128.471 50.3648 130.421 51.305 130.421 53.7058C130.421 56.1066 130.897 59.8282 126.342 59.9779C125.591 60.0017 124.166 59.9779 124.166 59.9779C124.166 59.9779 125.04 49.7394 116.128 49.44C107.061 49.135 107.662 59.8841 107.662 59.8841H69.8197C69.8197 59.8841 71.3736 49.412 61.6129 49.391C51.8522 49.37 53.2599 58.814 53.2599 58.814C53.2599 58.814 49.487 59.8841 47.386 57.6753C46.7115 54.1001 47.126 52.0211 47.126 52.0211V51.3061C47.4633 50.591 47.579 49.3947 47.8006 49.1609C48.1379 48.4459 47.8006 49.1609 48.0882 48.3669C48.0882 48.3669 49.487 43.7982 50.1616 42.7256C51.1626 41.8484 54.9228 36.2523 54.9228 36.2523L54.6577 36.0802C54.5594 36.0146 54.4807 35.921 54.4308 35.8102C54.3808 35.6993 54.3617 35.5758 54.3756 35.454C54.3895 35.3321 54.4358 35.2169 54.5092 35.1218C54.5826 35.0266 54.68 34.9553 54.7903 34.9161C56.8731 34.1606 60.9911 32.665 61.9589 32.3083C62.1039 32.2539 62.255 32.22 62.4084 32.2075C62.9865 32.1614 64.6225 32.0522 67.6255 32.0187C71.2834 31.9767 85.8064 32.0187 85.8064 32.0187C85.8064 32.0187 90.8047 32.4524 93.5889 33.7451C96.5084 35.105 106.644 40.879 106.644 40.879Z" fill="#95BFB7"/>
<g opacity="0.4">
<path d="M127.773 53.426C128.152 53.3449 128.732 53.3379 129.021 53.6079C129.236 53.8093 129.293 54.1353 129.325 54.4361C129.386 54.8482 129.377 55.2684 129.299 55.6771C129.259 55.8813 129.179 56.0745 129.065 56.2447C128.951 56.4149 128.805 56.5585 128.636 56.6663C128.288 56.8649 127.814 56.8328 127.544 56.5264C127.298 56.2465 127.27 55.8268 127.279 55.4533C127.289 54.9132 127.247 54.4557 127.342 53.9255C127.362 53.8129 127.408 53.707 127.474 53.6163C127.507 53.562 127.552 53.5164 127.604 53.4832C127.657 53.4499 127.716 53.4299 127.776 53.4246" fill="black"/>
</g>
<path d="M128.468 50.3648C127.36 50.3648 126.285 50.3005 125.178 50.2249C125.057 50.2305 124.938 50.1925 124.841 50.1172C124.797 50.0587 124.763 49.9915 124.744 49.9195C124.724 49.8475 124.718 49.772 124.726 49.6975C124.726 49.0707 124.75 48.3572 125.2 47.9486C125.476 47.6996 125.854 47.6212 126.216 47.5863C127.115 47.4838 128.024 47.5791 128.886 47.8661L128.468 50.3648Z" fill="#EEEEEE"/>
<path d="M105.442 59.5637C105.442 59.5637 105.442 59.5301 105.45 59.463C105.458 59.3958 105.46 59.2965 105.468 59.1692C105.481 58.9089 105.501 58.5298 105.527 58.0401C105.552 57.5504 105.584 56.9502 105.65 56.2563C105.718 55.4705 105.849 54.6922 106.041 53.9296C106.283 53.0084 106.642 52.1259 107.108 51.3063C107.636 50.3599 108.338 49.5341 109.173 48.8775C110.961 47.5344 113.378 46.7789 115.906 46.7425C118.435 46.7061 120.853 47.5498 122.598 48.9643C123.434 49.6172 124.167 50.4063 124.768 51.3021C125.293 52.0799 125.72 52.9264 126.038 53.8205C126.301 54.5594 126.481 55.328 126.575 56.1108C126.649 56.701 126.671 57.2973 126.64 57.8918C126.618 58.2675 126.574 58.6413 126.508 59.0111C126.486 59.1356 126.469 59.2321 126.459 59.2993C126.448 59.3664 126.444 59.3986 126.444 59.3986C126.444 59.3986 126.452 59.3664 126.465 59.3021L126.522 59.0222C126.594 58.6531 126.642 58.2791 126.665 57.903C126.701 57.3065 126.684 56.7078 126.612 56.115C126.521 55.3282 126.343 54.5553 126.082 53.8121C125.765 52.911 125.338 52.0573 124.812 51.2727C124.209 50.3697 123.473 49.5743 122.632 48.9167C120.879 47.4952 118.456 46.6432 115.908 46.6782C113.359 46.7131 110.939 47.4756 109.135 48.8313C108.296 49.4945 107.591 50.3279 107.06 51.2825C106.595 52.1085 106.238 52.9976 106 53.9254C105.809 54.6912 105.681 55.4729 105.617 56.2619C105.554 56.9614 105.527 57.5574 105.505 58.0471C105.484 58.5368 105.47 58.9173 105.459 59.1775C105.459 59.3049 105.451 59.4028 105.448 59.4714C105.446 59.5399 105.442 59.5637 105.442 59.5637Z" fill="white"/>
<path d="M105.044 59.7372V59.6533L105.052 59.4057C105.059 59.1846 105.068 58.8614 105.081 58.4389C105.104 57.5896 105.137 56.3487 105.179 54.7691C105.222 53.1895 105.271 51.2714 105.328 49.0748C105.342 48.525 105.355 47.9556 105.371 47.375C105.381 47.0783 105.368 46.7812 105.334 46.4865L105.275 46.036L105.187 45.5841C105.05 44.9668 104.852 44.3661 104.597 43.7919C104.335 43.19 104.01 42.6204 103.629 42.0934L97.0758 37.7367L95.3058 36.5615C94.7092 36.1431 94.0829 35.7741 93.4324 35.4576C92.7672 35.127 92.0846 34.8369 91.388 34.5888C91.0406 34.4601 90.684 34.3551 90.3274 34.2432C89.9707 34.1313 89.6074 34.0389 89.2389 33.9634C87.8491 33.6496 86.4363 33.4624 85.0161 33.4037C83.6534 33.3348 82.2883 33.3395 80.926 33.4177H80.8875L80.8968 33.4583L82.6575 41.7703C82.9828 42.3339 83.2495 42.9329 83.453 43.5569C83.6533 44.1487 83.7434 44.7758 83.7182 45.4037C83.6731 46.0179 83.6572 46.6195 83.6426 47.2029C83.628 47.7863 83.6214 48.3515 83.6108 48.9014C83.5803 51.0979 83.5723 53.0133 83.567 54.5914C83.5617 56.1696 83.567 57.4106 83.567 58.2584C83.567 58.6781 83.567 59.0041 83.567 59.2252C83.567 59.3329 83.567 59.4155 83.567 59.4728C83.567 59.5302 83.567 59.5568 83.567 59.5568C83.567 59.5568 83.567 59.5274 83.567 59.4728C83.567 59.4182 83.567 59.3329 83.567 59.2252C83.567 59.0041 83.567 58.6809 83.567 58.2584C83.567 57.4106 83.579 56.1696 83.5882 54.5928C83.5975 53.0161 83.6108 51.0951 83.6466 48.9014C83.6572 48.3529 83.6687 47.7872 83.681 47.2043C83.697 46.6209 83.7129 46.0221 83.7593 45.4079C83.7862 44.7721 83.6961 44.1369 83.4941 43.5373C83.292 42.9083 83.0252 42.3045 82.6986 41.7367V41.7465C82.159 39.1875 81.569 36.395 80.9446 33.4331L80.9141 33.4751C82.2733 33.3978 83.6353 33.3941 84.9949 33.4639C86.4116 33.5218 87.8209 33.709 89.207 34.0235C89.5743 34.1005 89.9323 34.2082 90.2916 34.3034C90.6509 34.3985 91.0022 34.5202 91.3522 34.6475C92.0489 34.8961 92.7315 35.1867 93.3966 35.5178C94.0438 35.8321 94.6671 36.1989 95.2607 36.6146L97.032 37.7899L103.586 42.1368V42.1298C103.966 42.6533 104.289 43.2196 104.551 43.8185C104.805 44.3883 105.003 44.9848 105.139 45.5981C105.438 46.7971 105.288 47.9766 105.285 49.0748L105.153 54.7691C105.117 56.3473 105.089 57.5897 105.07 58.4375C105.061 58.8572 105.056 59.1846 105.051 59.4057C105.051 59.5129 105.051 59.5955 105.051 59.6533C105.044 59.7093 105.044 59.7372 105.044 59.7372Z" fill="#263238"/>
<path d="M80.9738 33.6486H80.9114L80.7298 33.6416L80.0258 33.6234L77.4153 33.5703L68.6145 33.4108H68.5973L68.5867 33.4248L67.3536 35.0183C66.1047 36.637 64.9141 38.176 63.8323 39.5751L63.4345 40.0928C63.3058 40.2663 63.1951 40.4539 63.1044 40.6524C62.9401 41.0205 62.8509 41.4209 62.8425 41.8277C62.834 42.2345 62.9065 42.6387 63.0553 43.0141L63.4531 43.9934L64.6702 46.9651L65.0043 47.7709L65.0931 47.9808C65.113 48.027 65.1249 48.0507 65.1249 48.0507C65.1249 48.0507 65.117 48.0256 65.0997 47.978C65.0825 47.9304 65.052 47.8563 65.0175 47.7653C64.942 47.5779 64.8346 47.3036 64.6954 46.9539L63.5021 43.9738C63.2741 43.3414 62.8724 42.6755 62.9002 41.864C62.9061 41.4516 62.9966 41.0454 63.1654 40.6734C63.2543 40.4802 63.3627 40.2977 63.4889 40.1291L63.8866 39.6115L67.412 35.0589L68.6437 33.4653L68.6171 33.4793L77.4192 33.6192L80.0298 33.6514H80.7338H80.9141L80.9738 33.6486Z" fill="#263238"/>
<path d="M85.4219 45.9997C85.4219 45.9997 85.3848 45.9997 85.3171 45.9829C85.2177 45.9643 85.1229 45.9243 85.0387 45.8654C84.9051 45.7734 84.8051 45.6363 84.755 45.4764C84.7246 45.3772 84.712 45.2728 84.7179 45.1686C84.721 45.0525 84.7491 44.9386 84.8001 44.8357C84.8593 44.7184 84.9473 44.6201 85.0548 44.551C85.1623 44.4818 85.2854 44.4444 85.4113 44.4425H86.3049H88.3533C88.5263 44.4428 88.6929 44.5117 88.8199 44.6356C88.944 44.7548 89.0231 44.9172 89.0427 45.0931C89.0628 45.263 89.0332 45.4353 88.9578 45.587C88.8809 45.7294 88.7616 45.841 88.6184 45.9045C88.4766 45.9559 88.3263 45.9754 88.1769 45.9619H87.7434H86.9638L85.8355 45.9731L85.5293 45.9801C85.4933 45.9793 85.4573 45.9821 85.4219 45.9885C85.4575 45.9929 85.4934 45.9952 85.5293 45.9955H85.8355L86.9638 46.0067H87.7434H88.1769C88.2525 46.0067 88.3254 46.0067 88.4063 46.0067C88.4874 46.0014 88.5672 45.9821 88.6423 45.9493C88.7995 45.8812 88.9306 45.7595 89.0148 45.6037C89.099 45.4401 89.1319 45.2525 89.109 45.0679C89.0881 44.8716 88.9996 44.6903 88.8602 44.5584C88.7209 44.4266 88.5404 44.3535 88.3533 44.353H86.3049H85.4099C85.2747 44.356 85.1426 44.3975 85.0278 44.4731C84.913 44.5487 84.8197 44.6556 84.7576 44.7825C84.7046 44.8927 84.676 45.0142 84.6741 45.1379C84.6698 45.247 84.6847 45.3561 84.7179 45.4596C84.7739 45.6259 84.8819 45.767 85.0241 45.8598C85.1118 45.9186 85.2112 45.9555 85.3145 45.9675C85.349 45.9827 85.385 45.9935 85.4219 45.9997Z" fill="#263238"/>
<path d="M65.7998 45.9997C65.7998 45.9997 65.7627 45.9997 65.6951 45.9829C65.5956 45.9643 65.5008 45.9243 65.4166 45.8654C65.283 45.7734 65.183 45.6363 65.1329 45.4764C65.1025 45.3772 65.0899 45.2728 65.0958 45.1686C65.0989 45.0525 65.127 44.9386 65.178 44.8357C65.2373 44.7184 65.3252 44.6201 65.4327 44.551C65.5402 44.4818 65.6633 44.4444 65.7892 44.4425H66.6828H68.7312C68.9042 44.4428 69.0708 44.5117 69.1979 44.6356C69.322 44.7548 69.401 44.9172 69.4206 45.0931C69.4407 45.263 69.4111 45.4353 69.3358 45.587C69.2589 45.7294 69.1395 45.841 68.9964 45.9045C68.8546 45.9559 68.7042 45.9754 68.5549 45.9619H68.1213H67.3417L66.2135 45.9731L65.9072 45.9801C65.8712 45.9793 65.8353 45.9821 65.7998 45.9885C65.8355 45.9929 65.8713 45.9952 65.9072 45.9955H66.2135L67.3417 46.0067H68.1213H68.5549C68.6304 46.0067 68.7034 46.0067 68.7842 46.0067C68.8654 46.0014 68.9451 45.9821 69.0202 45.9493C69.1774 45.8812 69.3086 45.7595 69.3928 45.6037C69.4769 45.4401 69.5099 45.2525 69.4869 45.0679C69.4661 44.8716 69.3775 44.6903 69.2382 44.5584C69.0988 44.4266 68.9184 44.3535 68.7312 44.353H66.6828H65.7879C65.6526 44.356 65.5206 44.3975 65.4058 44.4731C65.2909 44.5487 65.1976 44.6556 65.1356 44.7825C65.0825 44.8927 65.0539 45.0142 65.052 45.1379C65.0478 45.247 65.0626 45.3561 65.0958 45.4596C65.1518 45.6259 65.2599 45.767 65.4021 45.8598C65.4898 45.9186 65.5891 45.9555 65.6924 45.9675C65.7269 45.9827 65.7629 45.9935 65.7998 45.9997Z" fill="#263238"/>
<path d="M50.1616 42.7256L53.0514 42.7256C53.2623 42.7256 53.4693 42.8 53.65 42.941C53.8306 43.082 53.9781 43.2841 54.0765 43.5256C54.1574 43.7254 54.2025 43.9462 54.2083 44.1716C54.2142 44.3971 54.1807 44.6213 54.1105 44.8277L52.8598 47.7309H48.1378C48.1378 47.7309 49.3177 43.8192 50.1616 42.7256Z" fill="#DEDEDE"/>
<path d="M103.108 42.1005L82.8591 41.7059L69.6805 41.4513L65.3344 38.8028C65.2518 38.7521 65.1804 38.6833 65.1248 38.6012C65.0693 38.5191 65.0309 38.4255 65.0122 38.3266C64.9935 38.2276 64.995 38.1256 65.0165 38.0273C65.038 37.929 65.079 37.8366 65.1369 37.7563L67.8429 34.0054C67.9819 33.8123 68.161 33.6553 68.3665 33.5467C68.572 33.438 68.7983 33.3805 69.0282 33.3786L83.7686 33.2527C83.7686 33.2527 89.3185 32.9113 93.6923 35.4912C98.2916 38.2152 103.108 42.1005 103.108 42.1005Z" fill="#263238"/>
<path d="M93.8289 33.6402C93.8289 33.6402 92.8133 34.1285 93.4735 34.5804C94.1338 35.0323 104.393 41.8556 104.393 41.8556L106.752 40.7293C102.574 38.2768 98.3552 35.8913 93.8289 33.6402Z" fill="#455A64"/>
<path d="M104.061 42.0291L104.125 42.0458L104.312 42.0892L105.032 42.2459C105.658 42.3774 106.565 42.5621 107.684 42.7664C109.938 43.1749 113.056 43.6506 116.525 43.9668C117.394 44.0465 118.249 44.1067 119.06 44.1682C119.872 44.2298 120.67 44.2788 121.42 44.3501C122.923 44.49 124.267 44.7195 125.359 45.0623C126.228 45.3171 127.063 45.6826 127.848 46.1507C128.13 46.3074 128.332 46.4613 128.474 46.5537L128.635 46.6614L128.693 46.6964C128.675 46.6819 128.658 46.6684 128.639 46.6558L128.482 46.5411C128.341 46.4446 128.142 46.2865 127.861 46.1214C127.081 45.6404 126.248 45.2644 125.379 45.0021C124.284 44.6509 122.936 44.4145 121.432 44.2732C120.681 44.1976 119.89 44.1445 119.071 44.0871C118.252 44.0297 117.405 43.9626 116.537 43.8828C113.069 43.5666 109.947 43.0993 107.697 42.7034C106.571 42.5061 105.664 42.3299 105.037 42.2067L104.315 42.0668L104.126 42.0304L104.061 42.0291Z" fill="#263238"/>
<path d="M47.0368 51.5976C47.0368 51.6187 48.3865 51.6341 50.0504 51.6341C51.7143 51.6341 53.0653 51.6187 53.0653 51.5976C53.0653 51.5765 51.7156 51.561 50.0504 51.561C48.3852 51.561 47.0368 51.5779 47.0368 51.5976Z" fill="#263238"/>
<path d="M71.7276 55.2323C71.7276 55.2534 79.3457 55.2689 88.7418 55.2689C98.1379 55.2689 105.757 55.2534 105.757 55.2323C105.757 55.2113 98.1405 55.1958 88.7418 55.1958C79.3431 55.1958 71.7276 55.2127 71.7276 55.2323Z" fill="#263238"/>
<path d="M125.064 51.7178C125.064 51.7389 126.142 51.7544 127.47 51.7544C128.799 51.7544 129.876 51.7389 129.876 51.7178C129.876 51.6967 128.799 51.6813 127.47 51.6813C126.142 51.6813 125.064 51.6981 125.064 51.7178Z" fill="#263238"/>
<path d="M55.0249 36.1068C55.0249 36.1068 55.9291 37.1742 55.5738 37.9577C55.2184 38.7412 51.5107 41.653 51.5107 41.653L50.1616 42.7256L55.0249 36.1068Z" fill="#455A64"/>
<path d="M80.3745 34.1942L80.9738 41.0273L70.2452 40.7041L65.9218 38.0515L68.7206 34.1942H80.3745Z" fill="#455A64"/>
<path d="M100.568 41.3771C100.568 41.3771 94.0955 36.444 91.542 35.4632C89.0773 34.5174 87.7926 34.2796 85.4777 34.204C83.2649 34.1369 81.9165 34.204 81.9165 34.204L83.6268 41.1505L100.568 41.3771Z" fill="#455A64"/>
<path d="M101.515 41.3939C101.515 41.1815 101.461 40.973 101.359 40.7896C101.258 40.6062 101.112 40.4546 100.937 40.3502L99.449 39.4688C99.0253 39.2171 98.5472 39.085 98.0609 39.0855C97.7615 39.0859 97.4639 39.1359 97.1792 39.2338C96.8693 39.3469 96.5994 39.5571 96.4056 39.8364C96.2119 40.1156 96.1034 40.4506 96.0947 40.7965C96.0863 41.0289 96.1225 41.2607 96.201 41.478C96.2795 41.6952 96.3988 41.8936 96.5517 42.061C96.7046 42.2285 96.8879 42.3617 97.0908 42.4526C97.2936 42.5435 97.5117 42.5903 97.7321 42.5901H100.384C100.684 42.5894 100.972 42.463 101.184 42.2388C101.396 42.0145 101.515 41.7107 101.515 41.3939Z" fill="#40B59F"/>
<path d="M101.515 41.394C101.515 41.394 101.515 41.4471 101.498 41.5451C101.477 41.6891 101.433 41.8281 101.365 41.955C101.258 42.1549 101.1 42.3192 100.909 42.4293C100.79 42.4951 100.66 42.5377 100.527 42.5552C100.375 42.5671 100.222 42.5703 100.07 42.565L97.8011 42.5566C97.5861 42.5627 97.372 42.5256 97.17 42.4475C96.9569 42.3634 96.7631 42.2326 96.6014 42.0638C96.4396 41.895 96.3135 41.692 96.2314 41.4681C96.1478 41.2319 96.1139 40.9794 96.1319 40.728C96.1497 40.4802 96.2189 40.2396 96.3346 40.0233C96.4503 39.8069 96.6097 39.62 96.8015 39.4758C96.9866 39.3408 97.1952 39.2457 97.4153 39.196C98.0199 39.0451 98.6548 39.1096 99.2211 39.3793C99.3921 39.4604 99.5486 39.5626 99.7037 39.6507L100.146 39.9109L100.909 40.3558C101.101 40.4648 101.259 40.6294 101.365 40.8301C101.432 40.9574 101.477 41.0962 101.498 41.2401C101.511 41.338 101.509 41.3912 101.513 41.3912C101.518 41.34 101.518 41.2884 101.513 41.2373C101.499 41.0904 101.457 40.948 101.391 40.8175C101.287 40.6086 101.127 40.4364 100.931 40.3223L100.174 39.8676L99.7342 39.6031C99.5804 39.5136 99.4239 39.4101 99.2489 39.3233C98.672 39.0431 98.023 38.9741 97.4047 39.1275C97.1767 39.1753 96.9599 39.2704 96.767 39.4073C96.5665 39.5571 96.3999 39.7518 96.2789 39.9775C96.1579 40.2031 96.0855 40.4541 96.067 40.7126C96.0475 40.9749 96.0828 41.2385 96.1704 41.4849C96.2559 41.7188 96.3877 41.9308 96.5568 42.1069C96.726 42.283 96.9287 42.4191 97.1515 42.5062C97.3609 42.5858 97.5826 42.6233 97.8051 42.6168L100.074 42.6098C100.228 42.6133 100.382 42.6081 100.536 42.5944C100.676 42.5739 100.811 42.5265 100.934 42.4545C101.129 42.3391 101.289 42.1673 101.395 41.9592C101.46 41.8285 101.501 41.6861 101.516 41.5395C101.519 41.491 101.519 41.4424 101.515 41.394Z" fill="#263238"/>
<path d="M51.4503 59.1053C51.4503 59.1053 51.4513 59.0736 51.4535 59.0102C51.4556 58.9468 51.4482 58.8513 51.4443 58.7338C51.4403 58.6163 51.4324 58.4573 51.4305 58.2778C51.4286 58.0982 51.4304 57.8885 51.4317 57.6552C51.433 57.422 51.4485 57.1602 51.4581 56.8762C51.4677 56.5921 51.4981 56.2825 51.5464 55.9529C51.632 55.2049 51.7853 54.4669 52.0044 53.7486C52.1333 53.3296 52.2885 52.9199 52.4691 52.5219C52.6611 52.0919 52.889 51.6802 53.1502 51.2915C53.732 50.4349 54.4603 49.6968 55.2987 49.1142C56.2217 48.4646 57.2437 47.9829 58.3211 47.6897C59.4381 47.3755 60.6456 47.288 61.8703 47.3198C63.0649 47.3489 64.2476 47.5691 65.3768 47.9728C65.9113 48.1688 66.4286 48.4121 66.9229 48.7002C67.3939 48.9819 67.8393 49.3074 68.2537 49.6729C69.0242 50.3455 69.7045 51.1225 70.2767 51.9832C70.5278 52.3779 70.7471 52.7935 70.9324 53.2258C71.1013 53.6264 71.2486 54.0364 71.3737 54.4541C71.755 55.713 71.9687 57.0207 72.0089 58.3409C72.0143 58.8091 71.9994 59.1689 71.979 59.4194C71.9683 59.5405 71.9598 59.6327 71.9551 59.6947C71.9503 59.7566 71.9519 59.7898 71.9519 59.7898C71.9519 59.7898 71.9529 59.7581 71.9657 59.695C71.9784 59.632 71.9843 59.5369 71.9975 59.42C72.0273 59.061 72.0395 58.7006 72.0341 58.3404C72.0057 57.0133 71.7989 55.6973 71.4196 54.4308C71.2945 54.0113 71.1481 53.599 70.9812 53.1957C70.7943 52.7602 70.5743 52.341 70.3232 51.942C69.7493 51.0758 69.0669 50.2933 68.2941 49.6149C67.8773 49.2466 67.4293 48.9182 66.9556 48.6336C66.458 48.3433 65.9373 48.098 65.3992 47.9004C64.2636 47.4922 63.0736 47.2698 61.8716 47.2412C60.6416 47.2092 59.4288 47.2965 58.3024 47.6145C57.2179 47.9106 56.1894 48.3968 55.261 49.0521C54.8309 49.359 54.4269 49.7037 54.0534 50.0825C53.6988 50.4377 53.3801 50.8298 53.1024 51.2527C52.8403 51.6449 52.6119 52.0603 52.4196 52.494C52.2394 52.8918 52.0851 53.3016 51.9576 53.7208C51.7396 54.4428 51.5887 55.1847 51.5071 55.9364C51.4602 56.2661 51.4497 56.5763 51.4254 56.8612C51.4012 57.1462 51.4067 57.4128 51.399 57.6417C51.3912 57.8706 51.4039 58.085 51.4057 58.2659C51.4075 58.4468 51.4197 58.5977 51.4261 58.7221C51.4325 58.8466 51.4374 58.9365 51.4406 58.9987C51.4438 59.0609 51.4503 59.1053 51.4503 59.1053Z" fill="white"/>
<path d="M83.941 42.1004H84.0311L84.3772 42.1088L85.6486 42.1326C86.7225 42.1536 88.2048 42.1955 89.8435 42.2431C91.4822 42.2907 92.9658 42.3229 94.0397 42.3313C94.5767 42.3313 95.0115 42.3313 95.3125 42.3313H95.6585H95.7474C95.7579 42.3334 95.7687 42.3334 95.7792 42.3313C95.7686 42.3295 95.7579 42.3295 95.7474 42.3313H95.6585L95.3125 42.3229L94.041 42.2991C92.9671 42.2781 91.4835 42.2361 89.8448 42.1899C88.2061 42.1438 86.7225 42.1088 85.6486 42.1004C85.1183 42.1004 84.6768 42.1004 84.3772 42.1004H84.0311H83.941Z" fill="white"/>
<path d="M85.6685 44.2034C86.0546 44.2404 86.4424 44.2526 86.8299 44.2399C87.2174 44.2526 87.6052 44.2404 87.9913 44.2034C87.6052 44.1672 87.2174 44.155 86.8299 44.1669C86.4424 44.155 86.0546 44.1672 85.6685 44.2034Z" fill="white"/>
<path d="M85.2415 36.7168C85.2349 36.735 86.676 37.3688 88.4619 38.1313C90.2478 38.8938 91.7009 39.4982 91.7088 39.4786C91.7168 39.459 90.2743 38.8266 88.4884 38.0641C86.7025 37.3016 85.2495 36.6986 85.2415 36.7168Z" fill="white"/>
<path d="M88.1637 37.1967C88.1557 37.2163 89.5293 37.8543 91.2303 38.6224C92.9313 39.3905 94.3155 39.999 94.3235 39.9809C94.3314 39.9627 92.9579 39.3247 91.2568 38.5552C89.5558 37.7857 88.1717 37.1757 88.1637 37.1967Z" fill="white"/>
<path d="M69.6342 36.4523C69.6262 36.4705 71.0687 37.1043 72.8546 37.8668C74.6405 38.6293 76.0936 39.2323 76.1015 39.2141C76.1095 39.1959 74.667 38.5621 72.8798 37.7996C71.0926 37.0371 69.6448 36.4327 69.6342 36.4523Z" fill="white"/>
<path d="M72.5615 36.9294C72.5536 36.949 73.9271 37.587 75.6268 38.3551C77.3265 39.1232 78.7133 39.7318 78.7213 39.7136C78.7292 39.6954 77.3557 39.0574 75.6547 38.2879C73.9536 37.5184 72.5615 36.9168 72.5615 36.9294Z" fill="white"/>
<path d="M69.3517 42.0935C69.3517 42.1131 72.2194 42.1483 75.7567 42.1708C79.294 42.1932 82.1617 42.1946 82.1617 42.1708C82.1617 42.1469 79.2953 42.116 75.7567 42.0949C72.2181 42.0738 69.3517 42.078 69.3517 42.0935Z" fill="white"/>
<path d="M66.1763 44.0872C66.1763 44.1069 66.9798 44.1308 67.9728 44.1406C68.9658 44.1505 69.7693 44.1406 69.7693 44.1224C69.7693 44.1041 68.9658 44.0774 67.9728 44.0676C66.9798 44.0577 66.1763 44.0662 66.1763 44.0872Z" fill="white"/>
<path d="M121.086 43.0518C121.112 43.0608 121.138 43.0665 121.165 43.0686L121.389 43.0994C121.487 43.1106 121.606 43.126 121.744 43.1512C121.882 43.1763 122.04 43.1945 122.212 43.2309C122.558 43.2953 122.968 43.3904 123.416 43.5107C123.901 43.6521 124.38 43.8192 124.849 44.0116C125.348 44.22 125.81 44.4481 126.224 44.6734C126.638 44.8986 126.996 45.1253 127.285 45.3281C127.434 45.4247 127.564 45.5226 127.682 45.6079C127.8 45.6933 127.897 45.7632 127.977 45.8248L128.161 45.9647C128.182 45.9819 128.205 45.9969 128.229 46.0095C128.211 45.9888 128.191 45.97 128.17 45.9535L127.993 45.8038C127.916 45.7394 127.82 45.6639 127.705 45.5758C127.589 45.4876 127.464 45.3897 127.307 45.2959C127.015 45.0875 126.655 44.8594 126.246 44.6258C125.352 44.1214 124.406 43.7294 123.425 43.4576C122.974 43.3344 122.562 43.2435 122.213 43.1861C122.04 43.1526 121.882 43.1358 121.743 43.1162C121.603 43.0966 121.477 43.084 121.386 43.077L121.159 43.0588C121.135 43.0547 121.111 43.0523 121.086 43.0518Z" fill="white"/>
<path d="M97.4099 39.7514C97.4099 39.7514 97.4484 39.6968 97.5425 39.6213C97.6697 39.5185 97.8209 39.4542 97.98 39.4352C98.2187 39.4142 98.4589 39.4412 98.688 39.5149C99.4953 39.7295 100.245 40.1368 100.88 40.7055C101.195 40.9854 101.362 41.191 101.371 41.1812C101.339 41.1278 101.302 41.0781 101.26 41.0329C101.15 40.9044 101.035 40.782 100.913 40.6664C100.508 40.2857 100.048 39.9758 99.5498 39.7486C99.2765 39.6223 98.993 39.5226 98.7026 39.4506C98.4661 39.3779 98.2183 39.3551 97.9734 39.3834C97.807 39.4075 97.6511 39.4829 97.5253 39.6003C97.4918 39.6319 97.462 39.6676 97.4364 39.7066C97.4152 39.7346 97.4073 39.75 97.4099 39.7514Z" fill="white"/>
<path d="M54.724 36.0564C54.9088 36.1036 55.0988 36.1243 55.2888 36.118C55.5118 36.1109 55.7338 36.0819 55.9517 36.0313C56.2393 35.9599 56.5216 35.8663 56.7963 35.7514C57.1025 35.6297 57.4287 35.4716 57.7813 35.3163L58.3315 35.0827C58.5211 35.0029 58.7213 34.9344 58.9229 34.856C59.8078 34.5398 60.7102 34.2805 61.6249 34.0795C63.2879 33.7142 64.9764 33.4934 66.6736 33.4192C66.9997 33.401 67.2941 33.401 67.5539 33.394H68.2168L68.6358 33.4038H68.783C68.7707 33.4013 68.7581 33.4013 68.7458 33.4038L68.6371 33.3954L68.2168 33.3716L67.5539 33.359C67.2888 33.359 66.9997 33.359 66.6736 33.3758C64.9717 33.4344 63.278 33.6498 61.6116 34.0194C60.695 34.2181 59.7911 34.4779 58.9056 34.7973C58.7041 34.8756 58.5079 34.9456 58.313 35.0267L57.7628 35.266C57.4101 35.4268 57.0853 35.5835 56.7817 35.7081C56.5107 35.8233 56.232 35.9169 55.9477 35.9879C55.7328 36.0422 55.5135 36.075 55.2928 36.0858C55.1534 36.0909 55.0138 36.0857 54.8751 36.0704L54.7677 36.0564H54.724Z" fill="#263238"/>
</g>
<defs>
<filter id="filter0_d_182_1498" x="0.575195" y="2.58057" width="65.2031" height="14" filterUnits="userSpaceOnUse" color-interpolation-filters="sRGB">
<feFlood flood-opacity="0" result="BackgroundImageFix"/>
<feColorMatrix in="SourceAlpha" type="matrix" values="0 0 0 0 0 0 0 0 0 0 0 0 0 0 0 0 0 0 127 0" result="hardAlpha"/>
<feOffset dy="4"/>
<feGaussianBlur stdDeviation="2"/>
<feComposite in2="hardAlpha" operator="out"/>
<feColorMatrix type="matrix" values="0 0 0 0 0 0 0 0 0 0 0 0 0 0 0 0 0 0 0.25 0"/>
<feBlend mode="normal" in2="BackgroundImageFix" result="effect1_dropShadow_182_1498"/>
<feBlend mode="normal" in="SourceGraphic" in2="effect1_dropShadow_182_1498" result="shape"/>
</filter>
<filter id="filter1_d_182_1498" x="33.467" y="17.0211" width="31.5963" height="14" filterUnits="userSpaceOnUse" color-interpolation-filters="sRGB">
<feFlood flood-opacity="0" result="BackgroundImageFix"/>
<feColorMatrix in="SourceAlpha" type="matrix" values="0 0 0 0 0 0 0 0 0 0 0 0 0 0 0 0 0 0 127 0" result="hardAlpha"/>
<feOffset dy="4"/>
<feGaussianBlur stdDeviation="2"/>
<feComposite in2="hardAlpha" operator="out"/>
<feColorMatrix type="matrix" values="0 0 0 0 0 0 0 0 0 0 0 0 0 0 0 0 0 0 0.25 0"/>
<feBlend mode="normal" in2="BackgroundImageFix" result="effect1_dropShadow_182_1498"/>
<feBlend mode="normal" in="SourceGraphic" in2="effect1_dropShadow_182_1498" result="shape"/>
</filter>
<filter id="filter2_d_182_1498" x="22" y="66" width="24.4459" height="14" filterUnits="userSpaceOnUse" color-interpolation-filters="sRGB">
<feFlood flood-opacity="0" result="BackgroundImageFix"/>
<feColorMatrix in="SourceAlpha" type="matrix" values="0 0 0 0 0 0 0 0 0 0 0 0 0 0 0 0 0 0 127 0" result="hardAlpha"/>
<feOffset dy="4"/>
<feGaussianBlur stdDeviation="2"/>
<feComposite in2="hardAlpha" operator="out"/>
<feColorMatrix type="matrix" values="0 0 0 0 0 0 0 0 0 0 0 0 0 0 0 0 0 0 0.25 0"/>
<feBlend mode="normal" in2="BackgroundImageFix" result="effect1_dropShadow_182_1498"/>
<feBlend mode="normal" in="SourceGraphic" in2="effect1_dropShadow_182_1498" result="shape"/>
</filter>
<filter id="filter3_d_182_1498" x="43" y="32" width="91.4357" height="42.0864" filterUnits="userSpaceOnUse" color-interpolation-filters="sRGB">
<feFlood flood-opacity="0" result="BackgroundImageFix"/>
<feColorMatrix in="SourceAlpha" type="matrix" values="0 0 0 0 0 0 0 0 0 0 0 0 0 0 0 0 0 0 127 0" result="hardAlpha"/>
<feOffset dy="4"/>
<feGaussianBlur stdDeviation="2"/>
<feComposite in2="hardAlpha" operator="out"/>
<feColorMatrix type="matrix" values="0 0 0 0 0 0 0 0 0 0 0 0 0 0 0 0 0 0 0.25 0"/>
<feBlend mode="normal" in2="BackgroundImageFix" result="effect1_dropShadow_182_1498"/>
<feBlend mode="normal" in="SourceGraphic" in2="effect1_dropShadow_182_1498" result="shape"/>
</filter>
</defs>
</svg>
