<svg width="342" height="98" viewBox="0 0 342 98" fill="none" xmlns="http://www.w3.org/2000/svg">
<g filter="url(#filter0_d_96_1948)">
<line x1="4.45911" y1="7.70184" x2="75.8048" y2="7.70184" stroke="#40B59F" stroke-width="6"/>
</g>
<g filter="url(#filter1_d_96_1948)">
<path d="M45.4829 24.9709L74.913 24.9709" stroke="#40B59F" stroke-width="6"/>
</g>
<path d="M31.2137 74.0211V89.1821" stroke="#40B59F" stroke-width="6"/>
<g filter="url(#filter2_d_96_1948)">
<path d="M29.4301 86.5066L49.9419 86.5066" stroke="#40B59F" stroke-width="6"/>
</g>
<path d="M48.1583 24.0792L48.1583 89.1821" stroke="#40B59F" stroke-width="6"/>
<circle cx="7.58047" cy="7.58047" r="7.58047" fill="#AFE0D7"/>
<circle cx="7.58045" cy="7.58045" r="4.01319" fill="#349A86"/>
<ellipse cx="74.9129" cy="8.47232" rx="7.58047" ry="7.58048" fill="#AFE0D7"/>
<path d="M74.9129 27.6465L67.7784 11.1478L82.0475 11.1478L74.9129 27.6465Z" fill="#AFE0D7"/>
<ellipse cx="74.9128" cy="8.4723" rx="4.01319" ry="4.01319" fill="white"/>
<line x1="59.752" y1="86.1821" x2="338" y2="86.1821" stroke="#AFE0D7" stroke-width="6" stroke-dasharray="30 5"/>
<g filter="url(#filter3_d_96_1948)">
<path d="M80.196 57.6873C82.396 56.8807 84.101 56.0007 85.311 55.0473C86.5577 54.094 87.4193 52.9757 87.896 51.6923C88.4093 50.409 88.666 48.9057 88.666 47.1823C88.666 45.129 88.171 43.3507 87.181 41.8473C86.2277 40.344 84.9077 39.189 83.221 38.3823C81.5343 37.539 79.591 37.1173 77.391 37.1173H61.881V77.3773H59.241V34.4773H77.391C80.141 34.4773 82.561 35.009 84.651 36.0723C86.741 37.1356 88.3727 38.6207 89.546 40.5273C90.7193 42.3973 91.306 44.6157 91.306 47.1823C91.306 50.519 90.6643 53.1407 89.381 55.0473C88.1343 56.9173 86.3377 58.274 83.991 59.1173L94.166 77.3773H91.031L80.196 57.6873ZM66.501 40.1973H75.521C78.0143 40.1973 80.0127 40.8756 81.516 42.2323C83.0193 43.5523 83.771 45.3673 83.771 47.6773C83.771 50.2073 83.0193 52.169 81.516 53.5623C80.0493 54.9557 78.0693 55.6523 75.576 55.6523H66.501V40.1973ZM75.576 53.0123C77.2627 53.0123 78.601 52.554 79.591 51.6373C80.6177 50.684 81.131 49.364 81.131 47.6773C81.131 46.1373 80.5993 44.9457 79.536 44.1023C78.5093 43.259 77.171 42.8373 75.521 42.8373H69.141V53.0123H75.576ZM74.696 60.8773H69.086V77.3773H66.446V58.2373H76.401L85.201 77.3773H82.286L74.696 60.8773ZM110.516 34.4773H113.156V77.3773H110.516V34.4773ZM102.816 34.4773H105.456V77.3773H102.816V34.4773ZM133.18 60.9873H143.41C147.077 60.9873 149.955 59.9057 152.045 57.7423C154.135 55.579 155.18 52.664 155.18 48.9973C155.18 46.6873 154.704 44.6523 153.75 42.8923C152.797 41.0956 151.459 39.684 149.735 38.6573C148.012 37.6306 145.959 37.1173 143.575 37.1173H128.45V77.3773H125.81V34.4773H143.575C146.472 34.4773 148.984 35.1007 151.11 36.3473C153.237 37.594 154.887 39.3173 156.06 41.5173C157.234 43.6807 157.82 46.174 157.82 48.9973C157.82 53.5073 156.537 57.0823 153.97 59.7223C151.404 62.3257 147.884 63.6273 143.41 63.6273H135.82V77.3773H133.18V60.9873ZM133.015 40.2523H141.32C143.924 40.2523 146.087 40.9673 147.81 42.3973C149.57 43.8273 150.45 46.0457 150.45 49.0523C150.45 51.0323 150.047 52.6823 149.24 54.0023C148.434 55.2857 147.334 56.2573 145.94 56.9173C144.584 57.5407 143.062 57.8523 141.375 57.8523H133.015V40.2523ZM141.375 55.2123C143.172 55.2123 144.694 54.7173 145.94 53.7273C147.187 52.7007 147.81 51.1423 147.81 49.0523C147.81 46.9257 147.187 45.3673 145.94 44.3773C144.694 43.3873 143.154 42.8923 141.32 42.8923H135.655V55.2123H141.375ZM175.251 34.4773H177.891V68.4123H196.096V71.0523H175.251V34.4773ZM167.716 34.4773H170.356V74.7373H196.096V77.3773H167.716V34.4773ZM210.054 34.4773L218.469 53.4523L226.939 34.4773H229.854L218.524 59.9423L207.139 34.4773H210.054ZM220.779 62.5273L234.034 34.4773H236.894L223.419 63.0223V77.3773H220.779V62.5273ZM213.244 62.9673L199.714 34.4773H202.574L215.884 62.3623V77.3773H213.244V62.9673Z" fill="#40B59F"/>
</g>
<path d="M239.008 60.6438H330.753V74.8497H239.008V60.6438Z" fill="#40B59F"/>
<g filter="url(#filter4_d_96_1948)">
<path d="M319.327 83.5137C314.453 83.1675 310.767 78.7166 311.095 73.5723C311.423 68.428 315.641 64.5384 320.515 64.8846C325.39 65.2308 329.076 69.6817 328.748 74.826C328.42 79.9703 324.202 83.8599 319.327 83.5137Z" fill="#263238"/>
<path d="M328.767 74.0411C328.767 74.0498 328.767 74.0585 328.767 74.0655C328.783 75.2915 328.571 76.5089 328.142 77.6484C327.713 78.7878 327.076 79.827 326.266 80.7064C325.457 81.5859 324.491 82.2884 323.424 82.774C322.357 83.2596 321.21 83.5186 320.048 83.5364C318.886 83.5541 317.733 83.3302 316.653 82.8775C315.573 82.4247 314.588 81.752 313.755 80.8977C312.921 80.0433 312.256 79.0241 311.796 77.8983C311.335 76.7724 311.09 75.562 311.073 74.336C311.073 74.3273 311.073 74.3185 311.073 74.3115L328.767 74.0411Z" fill="#263238"/>
<path d="M326.132 74.1056C326.151 75.4019 325.804 76.6748 325.137 77.7632C324.469 78.8517 323.511 79.7068 322.383 80.2205C321.255 80.7341 320.008 80.8832 318.8 80.6488C317.591 80.4145 316.476 79.8072 315.595 78.9039C314.713 78.0006 314.106 76.8417 313.849 75.574C313.592 74.3062 313.697 72.9865 314.151 71.7817C314.604 70.577 315.387 69.5413 316.398 68.8057C317.41 68.0701 318.605 67.6676 319.834 67.6492C321.48 67.6245 323.069 68.2907 324.25 69.5014C325.431 70.7121 326.108 72.3682 326.132 74.1056Z" fill="#FAFAFA"/>
<path d="M319.834 67.6475C321.481 67.6223 323.069 68.2884 324.25 69.4992C325.432 70.71 326.109 72.3663 326.133 74.1039L313.712 74.2941C313.689 72.5561 314.321 70.8794 315.469 69.633C316.617 68.3865 318.187 67.6723 319.834 67.6475Z" fill="#E0E0E0"/>
<path d="M323.705 74.1423C323.716 74.932 323.505 75.7073 323.098 76.3704C322.692 77.0334 322.108 77.5543 321.421 77.8671C320.734 78.18 319.974 78.2707 319.238 78.1279C318.502 77.9851 317.822 77.6151 317.286 77.0648C316.749 76.5145 316.379 75.8085 316.222 75.0362C316.066 74.2639 316.13 73.46 316.406 72.7261C316.683 71.9922 317.159 71.3614 317.776 70.9133C318.392 70.4653 319.12 70.2202 319.869 70.2091C320.365 70.2015 320.859 70.2972 321.32 70.4907C321.782 70.6843 322.203 70.9719 322.559 71.3371C322.915 71.7024 323.2 72.1381 323.397 72.6194C323.593 73.1007 323.698 73.6182 323.705 74.1423Z" fill="#263238"/>
<path d="M251.758 83.5105C246.88 83.2119 243.155 78.7971 243.438 73.6499C243.721 68.5026 247.904 64.572 252.782 64.8705C257.66 65.1691 261.385 69.5839 261.102 74.7312C260.819 79.8784 256.635 83.8091 251.758 83.5105Z" fill="#263238"/>
<path d="M261.118 74.0411C261.118 74.0498 261.118 74.0585 261.118 74.0655C261.135 75.2915 260.923 76.5089 260.493 77.6484C260.064 78.7878 259.427 79.827 258.617 80.7064C257.808 81.5859 256.842 82.2884 255.775 82.774C254.708 83.2596 253.561 83.5186 252.399 83.5364C251.237 83.5541 250.084 83.3302 249.004 82.8775C247.924 82.4247 246.939 81.752 246.106 80.8977C245.273 80.0433 244.607 79.0241 244.147 77.8983C243.687 76.7724 243.441 75.562 243.424 74.336C243.424 74.3273 243.424 74.3185 243.424 74.3115L261.118 74.0411Z" fill="#263238"/>
<path d="M258.484 74.1056C258.502 75.4019 258.155 76.6748 257.488 77.7632C256.82 78.8517 255.862 79.7068 254.734 80.2205C253.606 80.7341 252.359 80.8832 251.151 80.6488C249.942 80.4145 248.827 79.8072 247.946 78.9039C247.065 78.0006 246.457 76.8417 246.2 75.574C245.943 74.3062 246.048 72.9865 246.502 71.7817C246.956 70.577 247.738 69.5413 248.749 68.8057C249.761 68.0701 250.957 67.6676 252.185 67.6492C253.832 67.6245 255.42 68.2907 256.601 69.5014C257.782 70.7121 258.459 72.3682 258.484 74.1056Z" fill="#FAFAFA"/>
<path d="M252.185 67.6475C253.832 67.6223 255.42 68.2884 256.601 69.4992C257.783 70.71 258.46 72.3663 258.484 74.1039L246.063 74.2941C246.04 72.5561 246.672 70.8794 247.82 69.633C248.968 68.3865 250.538 67.6723 252.185 67.6475Z" fill="#E0E0E0"/>
<path d="M256.061 74.1423C256.072 74.932 255.861 75.7073 255.455 76.3704C255.048 77.0334 254.464 77.5543 253.777 77.8671C253.09 78.18 252.33 78.2707 251.594 78.1279C250.858 77.9851 250.179 77.6151 249.642 77.0648C249.105 76.5145 248.735 75.8085 248.578 75.0362C248.422 74.2639 248.486 73.46 248.762 72.7261C249.039 71.9922 249.516 71.3614 250.132 70.9133C250.748 70.4653 251.477 70.2202 252.225 70.2091C252.722 70.2015 253.215 70.2972 253.676 70.4907C254.138 70.6843 254.559 70.9719 254.915 71.3371C255.271 71.7024 255.556 72.1381 255.753 72.6194C255.949 73.1007 256.054 73.6182 256.061 74.1423Z" fill="#263238"/>
<path d="M308.327 52.098C308.327 52.098 321.354 53.1118 326.185 54.2547C329.589 55.0592 336.15 56.4499 336.071 60.8054L335.55 63.9289C335.55 63.9289 337.982 65.1015 337.982 68.0959C337.982 71.0903 338.576 75.7319 332.894 75.9187C331.958 75.9483 330.181 75.9187 330.181 75.9187C330.181 75.9187 331.27 63.1489 320.155 62.7755C308.846 62.3951 309.597 75.8017 309.597 75.8017H262.398C262.398 75.8017 264.336 62.7406 252.162 62.7144C239.988 62.6882 241.744 74.467 241.744 74.467C241.744 74.467 237.038 75.8017 234.418 73.0468C233.576 68.5877 234.093 65.9947 234.093 65.9947V65.1029C234.514 64.2111 234.659 62.719 234.935 62.4274C235.355 61.5356 234.935 62.4274 235.294 61.4371C235.294 61.4371 237.038 55.7388 237.88 54.4011C239.128 53.307 243.818 46.3273 243.818 46.3273L243.487 46.1127C243.365 46.0309 243.266 45.9141 243.204 45.7759C243.142 45.6377 243.118 45.4836 243.135 45.3317C243.153 45.1797 243.21 45.036 243.302 44.9173C243.394 44.7986 243.515 44.7097 243.653 44.6609C246.25 43.7186 251.386 41.8532 252.594 41.4082C252.774 41.3404 252.963 41.2982 253.154 41.2826C253.875 41.225 255.916 41.0889 259.661 41.047C264.223 40.9947 282.337 41.047 282.337 41.047C282.337 41.047 288.571 41.588 292.044 43.2003C295.685 44.8964 308.327 52.098 308.327 52.098Z" fill="#95BFB7"/>
<g opacity="0.4">
<path d="M334.678 67.7469C335.151 67.6457 335.876 67.637 336.236 67.9738C336.504 68.225 336.575 68.6316 336.615 69.0068C336.691 69.5207 336.679 70.0448 336.582 70.5546C336.532 70.8092 336.433 71.0502 336.29 71.2625C336.148 71.4748 335.966 71.6538 335.755 71.7883C335.322 72.0361 334.73 71.9959 334.394 71.6138C334.086 71.2648 334.052 70.7413 334.063 70.2754C334.075 69.6018 334.024 69.0312 334.141 68.3699C334.167 68.2295 334.223 68.0974 334.306 67.9842C334.348 67.9165 334.403 67.8597 334.468 67.8182C334.534 67.7767 334.607 67.7517 334.683 67.7452" fill="black"/>
</g>
<path d="M335.546 63.9289C334.164 63.9289 332.823 63.8486 331.442 63.7544C331.292 63.7614 331.144 63.714 331.022 63.62C330.967 63.5471 330.925 63.4633 330.901 63.3735C330.876 63.2836 330.868 63.1895 330.878 63.0966C330.878 62.3148 330.908 61.4249 331.47 60.9153C331.814 60.6047 332.286 60.507 332.737 60.4634C333.858 60.3356 334.992 60.4544 336.067 60.8124L335.546 63.9289Z" fill="#EEEEEE"/>
<path d="M306.827 75.4021C306.827 75.4021 306.827 75.3603 306.837 75.2765C306.847 75.1927 306.85 75.0688 306.86 74.9101C306.876 74.5855 306.901 74.1126 306.933 73.5019C306.964 72.8911 307.004 72.1425 307.086 71.277C307.172 70.297 307.335 69.3263 307.574 68.3751C307.876 67.2261 308.324 66.1255 308.905 65.1033C309.564 63.9228 310.439 62.8929 311.48 62.074C313.711 60.3988 316.725 59.4565 319.879 59.4112C323.032 59.3658 326.048 60.418 328.224 62.1822C329.267 62.9965 330.181 63.9808 330.931 65.098C331.586 66.0681 332.119 67.1239 332.515 68.239C332.843 69.1606 333.067 70.1192 333.185 71.0955C333.277 71.8317 333.304 72.5754 333.266 73.3169C333.239 73.7854 333.184 74.2517 333.101 74.7129C333.074 74.8682 333.053 74.9886 333.04 75.0723C333.026 75.1561 333.021 75.1962 333.021 75.1962C333.021 75.1962 333.031 75.1561 333.048 75.0758L333.119 74.7268C333.209 74.2664 333.269 73.8 333.298 73.3308C333.343 72.587 333.32 71.8402 333.231 71.1008C333.117 70.1195 332.895 69.1556 332.57 68.2285C332.175 67.1046 331.642 66.0399 330.986 65.0614C330.234 63.9351 329.316 62.9431 328.267 62.1228C326.081 60.35 323.058 59.2873 319.88 59.3309C316.702 59.3745 313.683 60.3255 311.434 62.0164C310.387 62.8435 309.507 63.8829 308.846 65.0736C308.265 66.1038 307.82 67.2127 307.523 68.3699C307.285 69.3251 307.125 70.3 307.045 71.284C306.967 72.1565 306.933 72.8998 306.906 73.5106C306.88 74.1213 306.861 74.596 306.848 74.9205C306.848 75.0793 306.838 75.2015 306.835 75.287C306.832 75.3725 306.827 75.4021 306.827 75.4021Z" fill="white"/>
<path d="M306.331 75.6185V75.5138L306.341 75.205C306.349 74.9293 306.36 74.5262 306.377 73.9992C306.405 72.94 306.446 71.3922 306.499 69.4221C306.552 67.452 306.613 65.0597 306.685 62.32C306.703 61.6343 306.719 60.9241 306.739 60.1999C306.751 59.8298 306.735 59.4594 306.693 59.0918L306.618 58.53L306.509 57.9663C306.338 57.1963 306.091 56.4472 305.773 55.731C305.446 54.9803 305.041 54.2698 304.566 53.6126L296.392 48.1787L294.185 46.713C293.441 46.1912 292.66 45.7309 291.848 45.3362C291.019 44.9239 290.167 44.5621 289.299 44.2525C288.865 44.092 288.42 43.9611 287.976 43.8215C287.531 43.6819 287.078 43.5668 286.618 43.4725C284.885 43.0812 283.123 42.8477 281.351 42.7745C279.652 42.6886 277.949 42.6944 276.25 42.792H276.202L276.214 42.8426L278.41 53.2095C278.815 53.9125 279.148 54.6596 279.402 55.4378C279.652 56.176 279.764 56.9581 279.732 57.7412C279.676 58.5073 279.656 59.2576 279.638 59.9853C279.62 60.7129 279.612 61.4179 279.599 62.1037C279.56 64.8433 279.551 67.2322 279.544 69.2005C279.537 71.1688 279.544 72.7166 279.544 73.7741C279.544 74.2976 279.544 74.7042 279.544 74.9799C279.544 75.1142 279.544 75.2172 279.544 75.2887C279.544 75.3603 279.544 75.3934 279.544 75.3934C279.544 75.3934 279.544 75.3568 279.544 75.2887C279.544 75.2207 279.544 75.1142 279.544 74.9799C279.544 74.7042 279.544 74.3011 279.544 73.7741C279.544 72.7166 279.559 71.1688 279.57 69.2022C279.582 67.2356 279.599 64.8398 279.643 62.1037C279.656 61.4196 279.671 60.7141 279.686 59.987C279.706 59.2594 279.726 58.5125 279.784 57.7465C279.817 56.9535 279.705 56.1613 279.453 55.4134C279.201 54.6289 278.868 53.8758 278.461 53.1676V53.1798C277.788 49.9883 277.052 46.5053 276.273 42.8112L276.235 42.8635C277.93 42.7672 279.629 42.7625 281.325 42.8496C283.092 42.9218 284.85 43.1553 286.578 43.5476C287.036 43.6435 287.483 43.7779 287.931 43.8966C288.379 44.0152 288.817 44.167 289.254 44.3258C290.123 44.6359 290.974 44.9982 291.804 45.4112C292.611 45.8033 293.388 46.2607 294.129 46.7793L296.338 48.2451L304.512 53.6667V53.658C304.986 54.3108 305.389 55.0172 305.715 55.7642C306.033 56.4749 306.279 57.2188 306.45 57.9838C306.822 59.4792 306.635 60.9502 306.632 62.32L306.466 69.4221C306.422 71.3904 306.387 72.94 306.364 73.9974C306.352 74.5209 306.346 74.9293 306.339 75.205C306.339 75.3387 306.339 75.4417 306.339 75.5138C306.331 75.5836 306.331 75.6185 306.331 75.6185Z" fill="#263238"/>
<path d="M276.309 43.0799H276.232L276.005 43.0712L275.127 43.0485L271.871 42.9822L260.895 42.7833H260.873L260.86 42.8007L259.322 44.7882C257.764 46.8072 256.279 48.7267 254.93 50.4716L254.434 51.1173C254.273 51.3337 254.135 51.5677 254.022 51.8153C253.817 52.2744 253.706 52.7738 253.695 53.2812C253.685 53.7886 253.775 54.2926 253.961 54.7608L254.457 55.9823L255.975 59.6886L256.392 60.6937L256.503 60.9555C256.527 61.0131 256.542 61.0427 256.542 61.0427C256.542 61.0427 256.532 61.0113 256.511 60.952C256.489 60.8926 256.451 60.8002 256.408 60.6867C256.314 60.4529 256.18 60.1109 256.007 59.6747L254.518 55.9579C254.234 55.1691 253.733 54.3385 253.768 53.3264C253.775 52.812 253.888 52.3054 254.098 51.8414C254.209 51.6005 254.344 51.3729 254.502 51.1626L254.998 50.517L259.395 44.8388L260.931 42.8513L260.898 42.8688L271.876 43.0433L275.132 43.0834H276.01H276.235L276.309 43.0799Z" fill="#263238"/>
<path d="M281.857 58.4846C281.857 58.4846 281.811 58.4846 281.727 58.4636C281.603 58.4404 281.484 58.3905 281.379 58.317C281.213 58.2023 281.088 58.0313 281.026 57.8319C280.988 57.7081 280.972 57.5779 280.979 57.4481C280.983 57.3032 281.018 57.1612 281.082 57.0327C281.156 56.8866 281.265 56.764 281.399 56.6777C281.534 56.5915 281.687 56.5447 281.844 56.5424H282.959H285.513C285.729 56.5428 285.937 56.6287 286.095 56.7832C286.25 56.9319 286.349 57.1345 286.373 57.3538C286.398 57.5657 286.361 57.7807 286.267 57.9698C286.172 58.1474 286.023 58.2867 285.844 58.3659C285.667 58.4299 285.48 58.4543 285.293 58.4375H284.753H283.78L282.373 58.4514L281.991 58.4601C281.946 58.4591 281.902 58.4627 281.857 58.4706C281.902 58.4761 281.946 58.479 281.991 58.4793H282.373L283.78 58.4933H284.753H285.293C285.388 58.4933 285.479 58.4933 285.58 58.4933C285.681 58.4868 285.78 58.4626 285.874 58.4217C286.07 58.3368 286.234 58.185 286.339 57.9907C286.444 57.7866 286.485 57.5527 286.456 57.3224C286.43 57.0776 286.32 56.8514 286.146 56.687C285.972 56.5226 285.747 56.4313 285.513 56.4307H282.959H281.842C281.674 56.4345 281.509 56.4862 281.366 56.5805C281.223 56.6748 281.106 56.8081 281.029 56.9664C280.963 57.1039 280.927 57.2555 280.925 57.4097C280.919 57.5458 280.938 57.6819 280.979 57.811C281.049 58.0183 281.184 58.1943 281.361 58.3101C281.471 58.3835 281.595 58.4294 281.723 58.4444C281.766 58.4634 281.811 58.4768 281.857 58.4846Z" fill="#263238"/>
<path d="M257.384 58.4846C257.384 58.4846 257.338 58.4846 257.253 58.4636C257.129 58.4404 257.011 58.3905 256.906 58.317C256.74 58.2023 256.615 58.0313 256.552 57.8319C256.514 57.7081 256.499 57.5779 256.506 57.4481C256.51 57.3032 256.545 57.1612 256.609 57.0327C256.682 56.8866 256.792 56.764 256.926 56.6777C257.06 56.5915 257.214 56.5447 257.371 56.5424H258.485H261.04C261.256 56.5428 261.464 56.6287 261.622 56.7832C261.777 56.9319 261.876 57.1345 261.9 57.3538C261.925 57.5657 261.888 57.7807 261.794 57.9698C261.698 58.1474 261.549 58.2867 261.371 58.3659C261.194 58.4299 261.006 58.4543 260.82 58.4375H260.279H259.307L257.9 58.4514L257.518 58.4601C257.473 58.4591 257.428 58.4627 257.384 58.4706C257.429 58.4761 257.473 58.479 257.518 58.4793H257.9L259.307 58.4933H260.279H260.82C260.914 58.4933 261.005 58.4933 261.106 58.4933C261.207 58.4868 261.307 58.4626 261.401 58.4217C261.597 58.3368 261.76 58.185 261.865 57.9907C261.97 57.7866 262.011 57.5527 261.983 57.3224C261.957 57.0776 261.846 56.8514 261.672 56.687C261.499 56.5226 261.274 56.4313 261.04 56.4307H258.485H257.369C257.2 56.4345 257.036 56.4862 256.893 56.5805C256.749 56.6748 256.633 56.8081 256.556 56.9664C256.489 57.1039 256.454 57.2555 256.451 57.4097C256.446 57.5458 256.465 57.6819 256.506 57.811C256.576 58.0183 256.711 58.1943 256.888 58.3101C256.997 58.3835 257.121 58.4294 257.25 58.4444C257.293 58.4634 257.338 58.4768 257.384 58.4846Z" fill="#263238"/>
<path d="M237.88 54.4011L241.484 54.4011C241.747 54.401 242.005 54.4938 242.23 54.6697C242.456 54.8455 242.64 55.0976 242.762 55.3988C242.863 55.648 242.919 55.9234 242.927 56.2046C242.934 56.4857 242.892 56.7654 242.805 57.0228L241.245 60.6438H235.355C235.355 60.6438 236.827 55.765 237.88 54.4011Z" fill="#DEDEDE"/>
<path d="M303.916 53.6213L278.661 53.1292L262.224 52.8116L256.804 49.5084C256.701 49.445 256.611 49.3593 256.542 49.2569C256.473 49.1545 256.425 49.0377 256.402 48.9143C256.378 48.7909 256.38 48.6637 256.407 48.5411C256.434 48.4185 256.485 48.3033 256.557 48.2031L259.932 43.5248C260.106 43.284 260.329 43.0882 260.585 42.9527C260.842 42.8172 261.124 42.7455 261.411 42.7431L279.795 42.586C279.795 42.586 286.717 42.1603 292.173 45.378C297.909 48.7755 303.916 53.6213 303.916 53.6213Z" fill="#263238"/>
<path d="M292.343 43.0694C292.343 43.0694 291.076 43.6784 291.9 44.242C292.723 44.8057 305.519 53.3159 305.519 53.3159L308.46 51.9112C303.25 48.8523 297.988 45.8771 292.343 43.0694Z" fill="#455A64"/>
<path d="M305.105 53.5323L305.185 53.5533L305.418 53.6074L306.316 53.8028C307.096 53.9668 308.227 54.1972 309.623 54.452C312.434 54.9615 316.323 55.5548 320.651 55.9491C321.734 56.0486 322.801 56.1236 323.813 56.2004C324.825 56.2772 325.82 56.3383 326.756 56.4273C328.629 56.6018 330.306 56.8879 331.669 57.3155C332.752 57.6333 333.794 58.0891 334.773 58.6731C335.125 58.8685 335.376 59.0604 335.553 59.1756L335.755 59.31L335.826 59.3536C335.805 59.3355 335.783 59.3187 335.76 59.303L335.563 59.1599C335.388 59.0395 335.14 58.8423 334.789 58.6364C333.817 58.0365 332.777 57.5676 331.694 57.2404C330.328 56.8024 328.646 56.5075 326.771 56.3313C325.833 56.2371 324.848 56.1708 323.826 56.0992C322.804 56.0277 321.747 55.9439 320.666 55.8444C316.34 55.4501 312.446 54.8673 309.639 54.3734C308.236 54.1274 307.105 53.9075 306.322 53.754L305.421 53.5795L305.186 53.5341L305.105 53.5323Z" fill="#263238"/>
<path d="M233.982 65.4664C233.982 65.4927 235.666 65.512 237.741 65.512C239.816 65.512 241.501 65.4927 241.501 65.4664C241.501 65.4401 239.818 65.4208 237.741 65.4208C235.664 65.4208 233.982 65.4419 233.982 65.4664Z" fill="#263238"/>
<path d="M264.777 69.9999C264.777 70.0262 274.279 70.0455 285.998 70.0455C297.717 70.0455 307.22 70.0262 307.22 69.9999C307.22 69.9736 297.72 69.9543 285.998 69.9543C274.276 69.9543 264.777 69.9754 264.777 69.9999Z" fill="#263238"/>
<path d="M331.3 65.6165C331.3 65.6428 332.644 65.6621 334.301 65.6621C335.958 65.6621 337.303 65.6428 337.303 65.6165C337.303 65.5902 335.958 65.5709 334.301 65.5709C332.644 65.5709 331.3 65.592 331.3 65.6165Z" fill="#263238"/>
<path d="M243.945 46.1458C243.945 46.1458 245.073 47.4772 244.63 48.4544C244.187 49.4316 239.562 53.0633 239.562 53.0633L237.88 54.401L243.945 46.1458Z" fill="#455A64"/>
<path d="M275.562 43.7604L276.309 52.2829L262.929 51.8798L257.536 48.5713L261.027 43.7604H275.562Z" fill="#455A64"/>
<path d="M300.748 52.7191C300.748 52.7191 292.675 46.5663 289.49 45.3431C286.416 44.1635 284.814 43.8669 281.927 43.7726C279.167 43.6889 277.485 43.7726 277.485 43.7726L279.618 52.4365L300.748 52.7191Z" fill="#455A64"/>
<path d="M301.929 52.7401C301.929 52.4752 301.862 52.2151 301.735 51.9863C301.608 51.7576 301.426 51.5685 301.208 51.4384L299.352 50.339C298.824 50.0251 298.228 49.8604 297.621 49.8609C297.248 49.8614 296.877 49.9238 296.521 50.0459C296.135 50.187 295.798 50.4492 295.557 50.7975C295.315 51.1457 295.18 51.5635 295.169 51.995C295.158 52.2848 295.203 52.5739 295.301 52.8449C295.399 53.1159 295.548 53.3633 295.739 53.5722C295.929 53.781 296.158 53.9472 296.411 54.0606C296.664 54.1739 296.936 54.2323 297.211 54.2321H300.518C300.893 54.2311 301.251 54.0736 301.516 53.7939C301.78 53.5142 301.929 53.1352 301.929 52.7401Z" fill="#40B59F"/>
<path d="M301.929 52.7401C301.929 52.7401 301.929 52.8064 301.907 52.9286C301.882 53.1082 301.826 53.2815 301.742 53.4398C301.608 53.6891 301.411 53.894 301.173 54.0314C301.025 54.1134 300.863 54.1666 300.697 54.1884C300.507 54.2032 300.317 54.2073 300.126 54.2006L297.297 54.1902C297.029 54.1977 296.762 54.1515 296.51 54.0541C296.244 53.9492 296.002 53.7861 295.801 53.5756C295.599 53.365 295.442 53.1118 295.339 52.8326C295.235 52.538 295.193 52.223 295.215 51.9095C295.237 51.6005 295.324 51.3004 295.468 51.0305C295.612 50.7606 295.811 50.5275 296.05 50.3477C296.281 50.1793 296.541 50.0607 296.816 49.9987C297.57 49.8106 298.362 49.8909 299.068 50.2273C299.281 50.3285 299.477 50.4559 299.67 50.5659L300.222 50.8904L301.173 51.4453C301.412 51.5812 301.61 51.7865 301.742 52.0369C301.825 52.1956 301.881 52.3687 301.907 52.5481C301.924 52.6703 301.922 52.7366 301.927 52.7366C301.933 52.6728 301.933 52.6085 301.927 52.5447C301.909 52.3615 301.857 52.1838 301.775 52.0212C301.645 51.7605 301.446 51.5458 301.201 51.4034L300.257 50.8363L299.708 50.5065C299.516 50.3948 299.321 50.2657 299.103 50.1575C298.383 49.808 297.574 49.722 296.803 49.9132C296.518 49.9729 296.248 50.0915 296.007 50.2622C295.757 50.4492 295.549 50.692 295.398 50.9734C295.248 51.2548 295.157 51.5679 295.134 51.8903C295.11 52.2175 295.154 52.5462 295.263 52.8535C295.37 53.1453 295.534 53.4097 295.745 53.6293C295.956 53.8489 296.209 54.0187 296.487 54.1274C296.748 54.2266 297.025 54.2734 297.302 54.2652L300.131 54.2565C300.324 54.2608 300.517 54.2544 300.708 54.2373C300.883 54.2118 301.051 54.1526 301.205 54.0628C301.448 53.919 301.648 53.7046 301.78 53.4451C301.861 53.2821 301.912 53.1045 301.93 52.9216C301.934 52.8611 301.934 52.8004 301.929 52.7401Z" fill="#263238"/>
<path d="M239.487 74.8303C239.487 74.8303 239.488 74.7907 239.491 74.7116C239.494 74.6325 239.484 74.5134 239.479 74.3669C239.474 74.2203 239.465 74.022 239.462 73.7981C239.46 73.5742 239.462 73.3126 239.464 73.0216C239.465 72.7307 239.485 72.4042 239.497 72.05C239.509 71.6957 239.546 71.3096 239.607 70.8984C239.713 69.9655 239.905 69.045 240.178 68.1492C240.339 67.6266 240.532 67.1155 240.758 66.6192C240.997 66.0829 241.281 65.5694 241.607 65.0847C242.333 64.0162 243.241 63.0956 244.287 62.3689C245.438 61.5588 246.713 60.9581 248.056 60.5923C249.45 60.2005 250.956 60.0913 252.483 60.131C253.973 60.1672 255.448 60.4419 256.857 60.9454C257.523 61.1899 258.168 61.4934 258.785 61.8526C259.372 62.2039 259.928 62.61 260.445 63.0658C261.406 63.9048 262.254 64.8739 262.968 65.9474C263.281 66.4396 263.554 66.9579 263.786 67.4971C263.996 67.9967 264.18 68.5082 264.336 69.0291C264.812 70.5993 265.078 72.2303 265.128 73.8768C265.135 74.4607 265.116 74.9095 265.091 75.222C265.078 75.3731 265.067 75.4881 265.061 75.5653C265.055 75.6426 265.057 75.684 265.057 75.684C265.057 75.684 265.058 75.6444 265.074 75.5658C265.09 75.4871 265.098 75.3686 265.114 75.2228C265.151 74.7749 265.166 74.3255 265.16 73.8762C265.124 72.221 264.866 70.5797 264.393 69.0001C264.237 68.4769 264.055 67.9626 263.846 67.4596C263.613 66.9164 263.339 66.3935 263.026 65.896C262.31 64.8156 261.459 63.8396 260.495 62.9935C259.975 62.5342 259.416 62.1245 258.826 61.7696C258.205 61.4075 257.556 61.1016 256.884 60.8551C255.468 60.346 253.984 60.0686 252.485 60.0329C250.951 59.993 249.438 60.1019 248.033 60.4986C246.68 60.8679 245.398 61.4743 244.24 62.2916C243.703 62.6744 243.199 63.1043 242.734 63.5767C242.291 64.0197 241.894 64.5088 241.547 65.0362C241.221 65.5254 240.936 66.0435 240.696 66.5844C240.471 67.0806 240.279 67.5917 240.12 68.1145C239.848 69.015 239.66 69.9403 239.558 70.8778C239.499 71.289 239.486 71.676 239.456 72.0314C239.426 72.3868 239.433 72.7193 239.423 73.0048C239.413 73.2902 239.429 73.5577 239.431 73.7833C239.434 74.0089 239.449 74.1971 239.457 74.3523C239.465 74.5075 239.471 74.6197 239.475 74.6973C239.479 74.7749 239.487 74.8303 239.487 74.8303Z" fill="white"/>
<path d="M280.01 53.6213H280.123L280.554 53.6317L282.14 53.6614C283.48 53.6876 285.328 53.7399 287.372 53.7993C289.416 53.8586 291.266 53.8987 292.606 53.9092C293.275 53.9092 293.818 53.9092 294.193 53.9092H294.625H294.736C294.749 53.9118 294.762 53.9118 294.775 53.9092C294.762 53.907 294.749 53.907 294.736 53.9092H294.625L294.193 53.8987L292.607 53.8691C291.268 53.8429 289.418 53.7905 287.374 53.733C285.33 53.6754 283.48 53.6317 282.14 53.6213C281.479 53.6213 280.928 53.6213 280.554 53.6213H280.123H280.01Z" fill="white"/>
<path d="M282.165 56.2443C282.646 56.2905 283.13 56.3057 283.613 56.2898C284.097 56.3057 284.58 56.2905 285.062 56.2443C284.58 56.1991 284.097 56.1839 283.613 56.1987C283.13 56.1839 282.646 56.1991 282.165 56.2443Z" fill="white"/>
<path d="M281.632 46.9066C281.624 46.9293 283.422 47.7198 285.649 48.6708C287.876 49.6218 289.689 50.3756 289.699 50.3512C289.709 50.3268 287.909 49.5381 285.682 48.587C283.455 47.636 281.642 46.8839 281.632 46.9066Z" fill="white"/>
<path d="M285.277 47.5052C285.267 47.5296 286.98 48.3253 289.102 49.2833C291.223 50.2413 292.95 51.0004 292.96 50.9777C292.97 50.955 291.256 50.1593 289.135 49.1995C287.013 48.2398 285.287 47.479 285.277 47.5052Z" fill="white"/>
<path d="M262.166 46.5768C262.156 46.5995 263.956 47.39 266.183 48.341C268.41 49.292 270.223 50.0441 270.233 50.0214C270.243 49.9987 268.443 49.2082 266.214 48.2572C263.985 47.3062 262.18 46.5524 262.166 46.5768Z" fill="white"/>
<path d="M265.817 47.1719C265.808 47.1963 267.521 47.992 269.641 48.95C271.76 49.908 273.49 50.6671 273.5 50.6444C273.51 50.6217 271.797 49.826 269.675 48.8662C267.554 47.9065 265.817 47.1562 265.817 47.1719Z" fill="white"/>
<path d="M261.814 53.6127C261.814 53.6372 265.391 53.681 269.803 53.7091C274.214 53.7371 277.791 53.7389 277.791 53.7091C277.791 53.6793 274.216 53.6407 269.803 53.6144C265.389 53.5881 261.814 53.5934 261.814 53.6127Z" fill="white"/>
<path d="M257.854 56.0993C257.854 56.1239 258.856 56.1537 260.094 56.166C261.333 56.1782 262.335 56.166 262.335 56.1432C262.335 56.1204 261.333 56.0871 260.094 56.0748C258.856 56.0625 257.854 56.0731 257.854 56.0993Z" fill="white"/>
<path d="M326.339 54.8079C326.371 54.8192 326.404 54.8262 326.437 54.8289L326.716 54.8673C326.839 54.8812 326.987 54.9004 327.159 54.9318C327.331 54.9632 327.528 54.9859 327.743 55.0313C328.175 55.1115 328.686 55.2302 329.245 55.3803C329.85 55.5566 330.447 55.7651 331.032 56.005C331.654 56.265 332.231 56.5494 332.747 56.8304C333.263 57.1113 333.709 57.394 334.07 57.647C334.257 57.7674 334.419 57.8896 334.566 57.996C334.713 58.1024 334.834 58.1897 334.933 58.2665L335.163 58.441C335.189 58.4624 335.217 58.4811 335.247 58.4968C335.225 58.471 335.201 58.4476 335.174 58.427L334.953 58.2403C334.857 58.16 334.738 58.0658 334.594 57.9559C334.45 57.8459 334.293 57.7238 334.098 57.6069C333.734 57.3469 333.284 57.0624 332.775 56.771C331.66 56.142 330.479 55.653 329.256 55.314C328.694 55.1604 328.18 55.047 327.745 54.9754C327.528 54.9336 327.331 54.9126 327.158 54.8882C326.984 54.8638 326.827 54.8481 326.713 54.8393L326.43 54.8166C326.4 54.8115 326.37 54.8086 326.339 54.8079Z" fill="white"/>
<path d="M296.809 50.6915C296.809 50.6915 296.857 50.6234 296.975 50.5292C297.133 50.4011 297.322 50.3208 297.52 50.2971C297.818 50.2709 298.118 50.3047 298.403 50.3966C299.41 50.6642 300.345 51.1722 301.137 51.8816C301.53 52.2306 301.739 52.4871 301.75 52.4749C301.71 52.4082 301.664 52.3462 301.611 52.2899C301.474 52.1296 301.33 51.977 301.178 51.8327C300.673 51.3579 300.099 50.9715 299.478 50.688C299.137 50.5306 298.784 50.4062 298.421 50.3163C298.126 50.2258 297.817 50.1973 297.512 50.2326C297.304 50.2626 297.11 50.3567 296.953 50.503C296.911 50.5425 296.874 50.587 296.842 50.6357C296.816 50.6706 296.806 50.6898 296.809 50.6915Z" fill="white"/>
<path d="M243.57 46.083C243.8 46.1418 244.037 46.1676 244.274 46.1598C244.553 46.151 244.829 46.1148 245.101 46.0516C245.46 45.9626 245.812 45.8459 246.155 45.7026C246.537 45.5508 246.943 45.3536 247.383 45.1599L248.069 44.8685C248.306 44.769 248.556 44.6835 248.807 44.5858C249.911 44.1914 251.036 43.868 252.177 43.6174C254.251 43.1617 256.357 42.8863 258.474 42.7937C258.881 42.771 259.248 42.771 259.572 42.7623H260.399L260.921 42.7745H261.105C261.089 42.7715 261.074 42.7715 261.058 42.7745L260.923 42.7641L260.399 42.7344L259.572 42.7187C259.241 42.7187 258.881 42.7187 258.474 42.7396C256.351 42.8127 254.239 43.0813 252.16 43.5423C251.017 43.7902 249.89 44.1142 248.785 44.5125C248.534 44.6102 248.289 44.6975 248.046 44.7987L247.36 45.0971C246.92 45.2978 246.515 45.4932 246.136 45.6485C245.798 45.7923 245.451 45.9089 245.096 45.9975C244.828 46.0653 244.555 46.1062 244.279 46.1197C244.106 46.126 243.931 46.1195 243.758 46.1005L243.625 46.083H243.57Z" fill="#263238"/>
</g>
<defs>
<filter id="filter0_d_96_1948" x="0.459106" y="4.70184" width="79.3457" height="14" filterUnits="userSpaceOnUse" color-interpolation-filters="sRGB">
<feFlood flood-opacity="0" result="BackgroundImageFix"/>
<feColorMatrix in="SourceAlpha" type="matrix" values="0 0 0 0 0 0 0 0 0 0 0 0 0 0 0 0 0 0 127 0" result="hardAlpha"/>
<feOffset dy="4"/>
<feGaussianBlur stdDeviation="2"/>
<feComposite in2="hardAlpha" operator="out"/>
<feColorMatrix type="matrix" values="0 0 0 0 0 0 0 0 0 0 0 0 0 0 0 0 0 0 0.25 0"/>
<feBlend mode="normal" in2="BackgroundImageFix" result="effect1_dropShadow_96_1948"/>
<feBlend mode="normal" in="SourceGraphic" in2="effect1_dropShadow_96_1948" result="shape"/>
</filter>
<filter id="filter1_d_96_1948" x="41.4829" y="21.9709" width="37.4301" height="14" filterUnits="userSpaceOnUse" color-interpolation-filters="sRGB">
<feFlood flood-opacity="0" result="BackgroundImageFix"/>
<feColorMatrix in="SourceAlpha" type="matrix" values="0 0 0 0 0 0 0 0 0 0 0 0 0 0 0 0 0 0 127 0" result="hardAlpha"/>
<feOffset dy="4"/>
<feGaussianBlur stdDeviation="2"/>
<feComposite in2="hardAlpha" operator="out"/>
<feColorMatrix type="matrix" values="0 0 0 0 0 0 0 0 0 0 0 0 0 0 0 0 0 0 0.25 0"/>
<feBlend mode="normal" in2="BackgroundImageFix" result="effect1_dropShadow_96_1948"/>
<feBlend mode="normal" in="SourceGraphic" in2="effect1_dropShadow_96_1948" result="shape"/>
</filter>
<filter id="filter2_d_96_1948" x="25.4301" y="83.5066" width="28.5118" height="14" filterUnits="userSpaceOnUse" color-interpolation-filters="sRGB">
<feFlood flood-opacity="0" result="BackgroundImageFix"/>
<feColorMatrix in="SourceAlpha" type="matrix" values="0 0 0 0 0 0 0 0 0 0 0 0 0 0 0 0 0 0 127 0" result="hardAlpha"/>
<feOffset dy="4"/>
<feGaussianBlur stdDeviation="2"/>
<feComposite in2="hardAlpha" operator="out"/>
<feColorMatrix type="matrix" values="0 0 0 0 0 0 0 0 0 0 0 0 0 0 0 0 0 0 0.25 0"/>
<feBlend mode="normal" in2="BackgroundImageFix" result="effect1_dropShadow_96_1948"/>
<feBlend mode="normal" in="SourceGraphic" in2="effect1_dropShadow_96_1948" result="shape"/>
</filter>
<filter id="filter3_d_96_1948" x="55.241" y="34.4773" width="185.653" height="50.9" filterUnits="userSpaceOnUse" color-interpolation-filters="sRGB">
<feFlood flood-opacity="0" result="BackgroundImageFix"/>
<feColorMatrix in="SourceAlpha" type="matrix" values="0 0 0 0 0 0 0 0 0 0 0 0 0 0 0 0 0 0 127 0" result="hardAlpha"/>
<feOffset dy="4"/>
<feGaussianBlur stdDeviation="2"/>
<feComposite in2="hardAlpha" operator="out"/>
<feColorMatrix type="matrix" values="0 0 0 0 0 0 0 0 0 0 0 0 0 0 0 0 0 0 0.25 0"/>
<feBlend mode="normal" in2="BackgroundImageFix" result="effect1_dropShadow_96_1948"/>
<feBlend mode="normal" in="SourceGraphic" in2="effect1_dropShadow_96_1948" result="shape"/>
</filter>
<filter id="filter4_d_96_1948" x="229.936" y="41.0237" width="112.064" height="50.5136" filterUnits="userSpaceOnUse" color-interpolation-filters="sRGB">
<feFlood flood-opacity="0" result="BackgroundImageFix"/>
<feColorMatrix in="SourceAlpha" type="matrix" values="0 0 0 0 0 0 0 0 0 0 0 0 0 0 0 0 0 0 127 0" result="hardAlpha"/>
<feOffset dy="4"/>
<feGaussianBlur stdDeviation="2"/>
<feComposite in2="hardAlpha" operator="out"/>
<feColorMatrix type="matrix" values="0 0 0 0 0 0 0 0 0 0 0 0 0 0 0 0 0 0 0.25 0"/>
<feBlend mode="normal" in2="BackgroundImageFix" result="effect1_dropShadow_96_1948"/>
<feBlend mode="normal" in="SourceGraphic" in2="effect1_dropShadow_96_1948" result="shape"/>
</filter>
</defs>
</svg>
